<svg width="320" height="96" viewBox="0 0 320 96" fill="none" xmlns="http://www.w3.org/2000/svg">
  <path d="M18 26H66C76.4934 26 85 34.5066 85 45C85 55.4934 76.4934 64 66 64H40V82H18V26ZM40 46H63C64.6569 46 66 44.6569 66 43C66 41.3431 64.6569 40 63 40H40V46Z" fill="#121212"/>
  <path d="M96 26H162V42H128V50H158V64H128V82H96V26Z" fill="#121212"/>
  <path d="M174 26H205L220 47L236 26H268V82H238V56L220 80L202 56V82H174V26Z" fill="#121212"/>
  <path d="M282 26H302V82H282V26Z" fill="#121212"/>
  <path d="M96 84H138V92H96V84Z" fill="#121212"/>
  <path d="M142 84H158V92H142V84Z" fill="#121212"/>
</svg>
